<svg width="30" height="30" viewBox="0 0 30 30" fill="none" xmlns="http://www.w3.org/2000/svg">
<circle cx="15" cy="15" r="15" fill="url(#paint0_radial_322_1360)"/>
<g clip-path="url(#clip0_322_1360)">
<path d="M19.4286 7H16.5714C16.5714 7.81304 15.9286 8.47826 15.1429 8.47826C14.3572 8.47826 13.7143 7.81304 13.7143 7H10.8572C10.0714 7 9.42859 7.66522 9.42859 8.47826V18.8261C9.42859 19.6391 10.0714 20.3043 10.8572 20.3043C13.5929 20.3043 20.8572 15.8696 20.8572 13.6522V8.47826C20.8572 7.66522 20.2143 7 19.4286 7ZM17.6286 13.5561L13.7143 15.8252C13.7143 15.8252 13.4857 15.8696 13.3572 15.8696C12.7714 15.8696 12.2857 15.367 12.2857 14.7609V11.0652C12.2857 10.4517 12.7714 9.95652 13.3572 9.95652C13.4857 9.95652 13.7143 10.0009 13.7143 10.0009L17.6286 12.27C17.85 12.3883 18 12.6322 18 12.913C18 13.1939 17.85 13.4378 17.6286 13.5561Z" fill="white"/>
<path d="M8 21.8565C8 24.0443 12.7857 22.4626 15.1429 21.3095C16.1857 20.7995 17.7214 20.1491 18.6143 19.5504C18.65 19.5282 18.6929 19.5356 18.7143 19.5652C18.7357 19.5947 18.7357 19.6465 18.7071 19.6687C17.5286 21.413 14.7714 22.5587 13.1357 23.0465C13.0786 23.0613 13.0429 23.1204 13.05 23.1795C13.0571 23.2387 13.1143 23.283 13.1714 23.283C17.5071 23.1426 22.2786 19.2695 22.2786 15.0047C22.3429 14.5243 22.1429 14.2213 21.8357 14.0365C21.7714 13.9995 21.6929 14.0069 21.6357 14.0513C21.5786 14.0956 21.5571 14.1769 21.5786 14.2508C21.9357 15.3373 18.8929 17.9834 15.1429 19.8239C12.4714 21.1321 10.1857 21.6939 9.21429 21.3687C8.74286 21.206 8.6 20.8513 8.75714 20.4078C8.77143 20.3634 8.75714 20.3191 8.71429 20.2969C8.67143 20.2747 8.62857 20.2895 8.6 20.3265C8.23571 20.8365 8 21.376 8 21.8491V21.8565Z" fill="white"/>
</g>
<defs>
<radialGradient id="paint0_radial_322_1360" cx="0" cy="0" r="1" gradientUnits="userSpaceOnUse" gradientTransform="translate(15 5.83333) rotate(90) scale(24.1667)">
<stop stop-color="#997629"/>
<stop offset="1" stop-color="#E1BA5D"/>
</radialGradient>
<clipPath id="clip0_322_1360">
<rect width="15" height="17" fill="white" transform="translate(8 7)"/>
</clipPath>
</defs>
</svg>
